REM DIRINDEX 1\5,1\2\6,1\2\7,1\3\8,1\3\9,1\4\10,1\4\11,1\4\12
REM DIRNAME folder01,folder02,folder03,folder04,folder05,folder06,folder07,folder08,folder09,folder10,folder11,folder12
TITLE ""
FILE "JE_DB3000_5th_4B_37.mp3" MP3
  TRACK 01 AUDIO
    TITLE "0:"
    INDEX 01 00:00:00
  TRACK 02 AUDIO
    TITLE "6:cjc026_01753"
    INDEX 01 00:00:05
  TRACK 03 AUDIO
    TITLE "0:"
    INDEX 01 00:01:01
  TRACK 04 AUDIO
    TITLE "7:cjc026_01754"
    INDEX 01 00:01:24
  TRACK 05 AUDIO
    TITLE "0:"
    INDEX 01 00:02:22
  TRACK 06 AUDIO
    TITLE "6:cjc026_01755"
    INDEX 01 00:02:49
  TRACK 07 AUDIO
    TITLE "0:"
    INDEX 01 00:03:51
  TRACK 08 AUDIO
    TITLE "7:cjc026_01756"
    INDEX 01 00:04:03
  TRACK 09 AUDIO
    TITLE "0:"
    INDEX 01 00:04:70
  TRACK 10 AUDIO
    TITLE "6:cjc026_01757"
    INDEX 01 00:05:20
  TRACK 11 AUDIO
    TITLE "0:"
    INDEX 01 00:06:16
  TRACK 12 AUDIO
    TITLE "7:cjc026_01758"
    INDEX 01 00:06:41
  TRACK 13 AUDIO
    TITLE "0:"
    INDEX 01 00:07:41
  TRACK 14 AUDIO
    TITLE "6:cjc026_01759"
    INDEX 01 00:07:64
  TRACK 15 AUDIO
    TITLE "0:"
    INDEX 01 00:09:00
  TRACK 16 AUDIO
    TITLE "7:cjc026_01760"
    INDEX 01 00:09:24
  TRACK 17 AUDIO
    TITLE "0:"
    INDEX 01 00:10:31
  TRACK 18 AUDIO
    TITLE "6:cjc026_01761"
    INDEX 01 00:10:57
  TRACK 19 AUDIO
    TITLE "0:"
    INDEX 01 00:11:58
  TRACK 20 AUDIO
    TITLE "7:cjc026_01762"
    INDEX 01 00:12:09
  TRACK 21 AUDIO
    TITLE "0:"
    INDEX 01 00:13:14
  TRACK 22 AUDIO
    TITLE "6:cjc026_01763"
    INDEX 01 00:13:37
  TRACK 23 AUDIO
    TITLE "0:"
    INDEX 01 00:14:47
  TRACK 24 AUDIO
    TITLE "7:cjc026_01764"
    INDEX 01 00:14:74
  TRACK 25 AUDIO
    TITLE "0:"
    INDEX 01 00:16:73
  TRACK 26 AUDIO
    TITLE "6:cjc026_01765"
    INDEX 01 00:17:25
  TRACK 27 AUDIO
    TITLE "0:"
    INDEX 01 00:18:44
  TRACK 28 AUDIO
    TITLE "7:cjc026_01766"
    INDEX 01 00:18:72
  TRACK 29 AUDIO
    TITLE "0:"
    INDEX 01 00:19:71
  TRACK 30 AUDIO
    TITLE "6:cjc026_01767"
    INDEX 01 00:20:22
  TRACK 31 AUDIO
    TITLE "0:"
    INDEX 01 00:21:33
  TRACK 32 AUDIO
    TITLE "7:cjc026_01768"
    INDEX 01 00:21:57
  TRACK 33 AUDIO
    TITLE "0:"
    INDEX 01 00:22:54
  TRACK 34 AUDIO
    TITLE "6:cjc026_01769"
    INDEX 01 00:23:06
  TRACK 35 AUDIO
    TITLE "0:"
    INDEX 01 00:24:16
  TRACK 36 AUDIO
    TITLE "7:cjc026_01770"
    INDEX 01 00:24:43
  TRACK 37 AUDIO
    TITLE "0:"
    INDEX 01 00:25:46
  TRACK 38 AUDIO
    TITLE "6:cjc026_01771"
    INDEX 01 00:25:74
  TRACK 39 AUDIO
    TITLE "0:"
    INDEX 01 00:26:69
  TRACK 40 AUDIO
    TITLE "7:cjc026_01772"
    INDEX 01 00:27:20
  TRACK 41 AUDIO
    TITLE "0:"
    INDEX 01 00:28:27
  TRACK 42 AUDIO
    TITLE "6:cjc026_01773"
    INDEX 01 00:28:53
  TRACK 43 AUDIO
    TITLE "0:"
    INDEX 01 00:29:46
  TRACK 44 AUDIO
    TITLE "7:cjc026_01774"
    INDEX 01 00:29:72
  TRACK 45 AUDIO
    TITLE "0:"
    INDEX 01 00:30:65
  TRACK 46 AUDIO
    TITLE "6:cjc026_01775"
    INDEX 01 00:31:14
  TRACK 47 AUDIO
    TITLE "0:"
    INDEX 01 00:32:25
  TRACK 48 AUDIO
    TITLE "7:cjc026_01776"
    INDEX 01 00:32:48
  TRACK 49 AUDIO
    TITLE "0:"
    INDEX 01 00:33:50
  TRACK 50 AUDIO
    TITLE "6:cjc026_01777"
    INDEX 01 00:34:00
  TRACK 51 AUDIO
    TITLE "0:"
    INDEX 01 00:35:72
  TRACK 52 AUDIO
    TITLE "7:cjc026_01778"
    INDEX 01 00:36:25
  TRACK 53 AUDIO
    TITLE "0:"
    INDEX 01 00:37:22
  TRACK 54 AUDIO
    TITLE "6:cjc026_01779"
    INDEX 01 00:37:48
  TRACK 55 AUDIO
    TITLE "0:"
    INDEX 01 00:39:62
  TRACK 56 AUDIO
    TITLE "7:cjc026_01780"
    INDEX 01 00:40:13
  TRACK 57 AUDIO
    TITLE "0:"
    INDEX 01 00:41:12
  TRACK 58 AUDIO
    TITLE "6:cjc026_01781"
    INDEX 01 00:41:40
  TRACK 59 AUDIO
    TITLE "0:"
    INDEX 01 00:42:53
  TRACK 60 AUDIO
    TITLE "7:cjc026_01782"
    INDEX 01 00:43:05
  TRACK 61 AUDIO
    TITLE "0:"
    INDEX 01 00:44:05
